{
  "accessors": [
    {
      "bufferView": 2,
      "componentType": 5126,
      "count": 9764,
      "max": [
        123.31659698486328,
        284.8045959472656,
        62.86970138549805
      ],
      "min": [
        -111.8678970336914,
        -293.8487854003906,
        -90.2019271850586
      ],
      "type": "VEC3"
    },
    {
      "bufferView": 2,
      "byteOffset": 117168,
      "componentType": 5126,
      "count": 9764,
      "max": [
        1.0,
        1.0,
        1.0
      ],
      "min": [
        -1.0,
        -1.0,
        -1.0
      ],
      "type": "VEC3"
    },
    {
      "bufferView": 3,
      "componentType": 5126,
      "count": 9764,
      "max": [
        1.0,
        1.0,
        0.9999996423721313,
        1.0
      ],
      "min": [
        -0.9999998211860657,
        -1.0,
        -1.0,
        -1.0
      ],
      "type": "VEC4"
    },
    {
      "bufferView": 1,
      "componentType": 5126,
      "count": 9764,
      "max": [
        0.999799907207489,
        0.999796450138092
      ],
      "min": [
        0.00019999999494757503,
        0.00019999999494757503
      ],
      "type": "VEC2"
    },
    {
      "bufferView": 1,
      "byteOffset": 78112,
      "componentType": 5126,
      "count": 9764,
      "max": [
        1.0,
        0.999969482421875
      ],
      "min": [
        -0.06806126236915588,
        0.0
      ],
      "type": "VEC2"
    },
    {
      "bufferView": 0,
      "componentType": 5125,
      "count": 33687,
      "type": "SCALAR"
    },
    {
      "bufferView": 2,
      "byteOffset": 234336,
      "componentType": 5126,
      "count": 9092,
      "max": [
        198.92608642578125,
        284.8045959472656,
        62.86970138549805
      ],
      "min": [
        -111.8678970336914,
        -293.8487854003906,
        -90.2019271850586
      ],
      "type": "VEC3"
    },
    {
      "bufferView": 2,
      "byteOffset": 343440,
      "componentType": 5126,
      "count": 9092,
      "max": [
        1.0,
        1.0,
        1.0
      ],
      "min": [
        -1.0,
        -1.0,
        -1.0
      ],
      "type": "VEC3"
    },
    {
      "bufferView": 3,
      "byteOffset": 156224,
      "componentType": 5126,
      "count": 9092,
      "max": [
        1.0,
        1.0,
        0.9999996423721313,
        1.0
      ],
      "min": [
        -0.9999998211860657,
        -1.0,
        -1.0,
        -1.0
      ],
      "type": "VEC4"
    },
    {
      "bufferView": 1,
      "byteOffset": 156224,
      "componentType": 5126,
      "count": 9092,
      "max": [
        0.999799907207489,
        0.999796450138092
      ],
      "min": [
        0.00019999999494757503,
        0.00019999999494757503
      ],
      "type": "VEC2"
    },
    {
      "bufferView": 1,
      "byteOffset": 228960,
      "componentType": 5126,
      "count": 9092,
      "max": [
        1.0,
        0.999969482421875
      ],
      "min": [
        -0.06806126236915588,
        0.0
      ],
      "type": "VEC2"
    },
    {
      "bufferView": 0,
      "byteOffset": 134748,
      "componentType": 5125,
      "count": 31047,
      "type": "SCALAR"
    }
  ],
  "asset": {
    "extras": {
      "author": "Renafox (https://sketchfab.com/kryik1023)",
      "license": "CC-BY-4.0 (http://creativecommons.org/licenses/by/4.0/)",
      "source": "https://sketchfab.com/3d-models/free-burned-police-cars-ad16f7085cb047b494997cf9efed5059",
      "title": "Free Burned Police Cars"
    },
    "generator": "Sketchfab-12.68.0",
    "version": "2.0"
  },
  "bufferViews": [
    {
      "buffer": 0,
      "byteLength": 258936,
      "name": "floatBufferViews",
      "target": 34963
    },
    {
      "buffer": 0,
      "byteLength": 301696,
      "byteOffset": 258936,
      "byteStride": 8,
      "name": "floatBufferViews",
      "target": 34962
    },
    {
      "buffer": 0,
      "byteLength": 452544,
      "byteOffset": 560632,
      "byteStride": 12,
      "name": "floatBufferViews",
      "target": 34962
    },
    {
      "buffer": 0,
      "byteLength": 301696,
      "byteOffset": 1013176,
      "byteStride": 16,
      "name": "floatBufferViews",
      "target": 34962
    }
  ],
  "buffers": [
    {
      "byteLength": 1314872,
      "uri": "scene.bin"
    }
  ],
  "images": [
    {
      "uri": "textures/Material_98_baseColor.png"
    },
    {
      "uri": "textures/Material_98_metallicRoughness.png"
    },
    {
      "uri": "textures/Material_98_normal.png"
    },
    {
      "uri": "textures/Material_99_baseColor.png"
    },
    {
      "uri": "textures/Material_99_normal.png"
    }
  ],
  "materials": [
    {
      "doubleSided": true,
      "name": "Material_98",
      "normalTexture": {
        "index": 2
      },
      "occlusionTexture": {
        "index": 1
      },
      "pbrMetallicRoughness": {
        "baseColorTexture": {
          "index": 0
        },
        "metallicRoughnessTexture": {
          "index": 1
        }
      }
    },
    {
      "doubleSided": true,
      "name": "Material_99",
      "normalTexture": {
        "index": 4
      },
      "occlusionTexture": {
        "index": 1
      },
      "pbrMetallicRoughness": {
        "baseColorTexture": {
          "index": 3
        },
        "metallicRoughnessTexture": {
          "index": 1
        }
      }
    }
  ],
  "meshes": [
    {
      "name": "Object004_Material #98_0",
      "primitives": [
        {
          "attributes": {
            "NORMAL": 1,
            "POSITION": 0,
            "TANGENT": 2,
            "TEXCOORD_0": 3,
            "TEXCOORD_1": 4
          },
          "indices": 5,
          "material": 0,
          "mode": 4
        }
      ]
    },
    {
      "name": "Object005_Material #99_0",
      "primitives": [
        {
          "attributes": {
            "NORMAL": 7,
            "POSITION": 6,
            "TANGENT": 8,
            "TEXCOORD_0": 9,
            "TEXCOORD_1": 10
          },
          "indices": 11,
          "material": 1,
          "mode": 4
        }
      ]
    }
  ],
  "nodes": [
    {
      "children": [
        1
      ],
      "matrix": [
        1.0,
        0.0,
        0.0,
        0.0,
        0.0,
        2.220446049250313e-16,
        -1.0,
        0.0,
        0.0,
        1.0,
        2.220446049250313e-16,
        0.0,
        0.0,
        0.0,
        0.0,
        1.0
      ],
      "name": "Sketchfab_model"
    },
    {
      "children": [
        2
      ],
      "matrix": [
        1.0,
        0.0,
        0.0,
        0.0,
        0.0,
        0.0,
        1.0,
        0.0,
        0.0,
        -1.0,
        0.0,
        0.0,
        0.0,
        0.0,
        0.0,
        1.0
      ],
      "name": "burnedpolice.FBX"
    },
    {
      "children": [
        3,
        5
      ],
      "name": "RootNode"
    },
    {
      "children": [
        4
      ],
      "matrix": [
        -0.9659258818935434,
        -1.3877787807814457e-16,
        0.25881883758370594,
        0.0,
        0.25881883758370594,
        -2.220446049250313e-16,
        0.9659258818935433,
        0.0,
        -8.326672684688674e-17,
        1.0,
        0.0,
        0.0,
        0.0,
        90.84510803222656,
        3.970965735788923e-06,
        1.0
      ],
      "name": "Object004"
    },
    {
      "mesh": 0,
      "name": "Object004_Material #98_0"
    },
    {
      "children": [
        6
      ],
      "matrix": [
        -0.9999999999999882,
        1.5099580265055072e-07,
        -1.2246464555384738e-16,
        0.0,
        3.908058988040764e-08,
        0.2588190471264925,
        -0.9659258257467458,
        0.0,
        -1.458507453278297e-07,
        -0.9659258257467347,
        -0.25881904712649506,
        0.0,
        322.8251953125,
        64.60319519042969,
        -133.0637969970703,
        1.0
      ],
      "name": "Object005"
    },
    {
      "mesh": 1,
      "name": "Object005_Material #99_0"
    }
  ],
  "samplers": [
    {
      "magFilter": 9729,
      "minFilter": 9987,
      "wrapS": 10497,
      "wrapT": 10497
    }
  ],
  "scene": 0,
  "scenes": [
    {
      "name": "Sketchfab_Scene",
      "nodes": [
        0
      ]
    }
  ],
  "textures": [
    {
      "sampler": 0,
      "source": 0
    },
    {
      "sampler": 0,
      "source": 1
    },
    {
      "sampler": 0,
      "source": 2
    },
    {
      "sampler": 0,
      "source": 3
    },
    {
      "sampler": 0,
      "source": 4
    }
  ]
}
